# xmcd
# Track frame offsets:
# 150
# 17317
# 36420
# 53697
# 69262
# 90507
# 110582
# 124822
# 138650
# 155820
#
# Disc length: 2332 seconds
# Revision: 0
# Processed by: cddbd v1.5.2PL0 Copyright (c) Steve Scherf et al.
# Submitted via: VisiTrax 2.10.3.257 - For more info visit www.synapsa.com
#
DISCID=82091a0a
DTITLE=Uffe Rørbæk - Rørbæk
DYEAR=1994
DGENRE=
TTITLE0=A Place In Paradise
TTITLE1=Disappointment's In Your Eyes
TTITLE2=Home
TTITLE3=Why Don't You Hold My Hand
TTITLE4=Right To Be Dumb
TTITLE5=Don't Give Up Hope
TTITLE6=Spring Explosion
TTITLE7=A Silent Moment
TTITLE8=All The Things We Do
TTITLE9=Leave The Struggle
EXTD=
EXTT0=
EXTT1=
EXTT2=
EXTT3=
EXTT4=
EXTT5=
EXTT6=
EXTT7=
EXTT8=
EXTT9=
PLAYORDER=
